<?xml version="1.0" standalone="no"?>
<!DOCTYPE svg PUBLIC "-//W3C//DTD SVG 20010904//EN"
 "http://www.w3.org/TR/2001/REC-SVG-20010904/DTD/svg10.dtd">
<svg version="1.0" xmlns="http://www.w3.org/2000/svg"
 width="692.000000pt" height="692.000000pt" viewBox="0 0 692.000000 692.000000"
 preserveAspectRatio="xMidYMid meet">
<metadata>
Created by potrace 1.14, written by Peter Selinger 2001-2017
</metadata>
<g transform="translate(0.000000,692.000000) scale(0.100000,-0.100000)"
fill="#000000" stroke="none">
<path d="M0 4469 l0 -2452 21 27 c18 23 23 25 33 12 6 -9 27 -17 46 -18 19 -2
38 -10 42 -18 5 -12 7 -12 7 3 1 9 6 17 12 17 6 0 8 -7 5 -17 -6 -15 -4 -15
13 1 16 15 24 16 35 7 10 -8 16 -9 21 -1 3 6 10 8 15 5 5 -3 16 2 24 11 9 9
16 11 16 4 0 -6 4 -8 10 -5 6 4 7 -1 3 -12 -5 -15 -3 -16 8 -5 18 16 39 15 39
-2 0 -13 4 -13 27 -1 21 11 30 12 42 2 12 -10 14 -9 8 6 -3 9 -2 17 3 17 6 0
10 -7 10 -16 0 -9 5 -12 12 -8 6 4 17 -1 23 -10 11 -15 13 -15 19 -1 4 12 10
13 24 6 11 -6 24 -6 33 -1 7 5 22 7 33 4 11 -4 16 -2 12 4 -3 6 -2 13 4 17 5
3 10 1 10 -5 0 -7 8 -9 19 -5 15 5 18 1 15 -22 -3 -21 -2 -23 4 -10 4 10 11
18 15 18 4 -1 8 -1 10 0 1 0 13 3 27 6 14 2 32 6 40 8 8 2 19 4 23 4 5 1 5 6
1 13 -5 7 -3 8 5 4 7 -5 10 -10 7 -13 -12 -13 20 -28 51 -25 23 3 40 -2 54
-13 10 -10 21 -16 24 -14 6 7 -7 24 -30 38 l-20 13 20 -8 c11 -4 27 -7 36 -8
10 0 15 -6 11 -15 -3 -9 -1 -12 6 -7 7 4 12 2 12 -5 0 -7 10 -9 25 -7 19 4 25
1 25 -13 0 -21 16 -34 25 -20 3 6 13 7 22 4 9 -4 14 -2 11 3 -4 5 5 10 19 11
l26 1 -29 -19 c-16 -11 -53 -28 -83 -39 -47 -18 -61 -19 -108 -10 -49 11 -56
10 -68 -7 -23 -29 -17 -53 18 -87 59 -55 94 -58 216 -24 58 16 121 36 139 44
l32 14 0 -79 c0 -91 15 -180 33 -198 7 -7 42 -14 80 -15 l66 -3 6 -40 c5 -40
0 -256 -10 -450 -8 -136 -9 -148 -18 -162 -5 -7 -5 -18 -2 -23 4 -6 2 -16 -3
-23 -6 -7 -18 -54 -28 -105 -10 -51 -21 -88 -24 -81 -4 6 -10 1 -13 -12 -4
-16 -1 -26 9 -32 8 -4 12 -12 9 -17 -3 -4 0 -21 5 -36 9 -22 8 -25 -3 -16 -8
7 -17 9 -20 5 -4 -3 -14 0 -23 8 -16 13 -16 12 -5 -10 7 -13 8 -21 3 -17 -6 3
-13 -2 -16 -11 -4 -15 -5 -15 -4 2 0 11 -1 34 -2 50 l-2 30 -13 -30 c-8 -16
-15 -28 -16 -25 -2 8 -8 40 -15 93 -4 26 -10 47 -14 47 -15 0 -16 -85 -2 -113
17 -33 9 -65 -12 -48 -7 6 -15 9 -17 7 -2 -2 -25 -6 -51 -9 -50 -7 -62 5 -36
31 7 7 20 53 29 102 13 80 14 91 0 105 -13 13 -13 15 -1 15 16 1 60 34 60 45
0 13 -36 -1 -52 -20 -10 -11 -17 -15 -18 -8 0 6 6 14 12 16 10 4 10 6 1 6 -7
1 -17 -7 -22 -18 -12 -22 -82 -24 -89 -3 -3 11 0 12 18 2 20 -11 21 -10 15 9
-9 28 9 27 23 -1 l11 -23 0 23 c1 12 6 22 11 22 6 0 10 7 10 15 0 19 -14 19
-56 -1 -33 -16 -36 -15 -56 2 -13 12 -18 13 -13 4 16 -26 13 -55 -8 -72 -25
-22 -37 -23 -37 -3 0 8 -4 15 -10 15 -5 0 -10 -9 -10 -20 0 -23 -18 -27 -26
-5 -10 25 -19 17 -18 -17 1 -35 -14 -78 -27 -78 -5 0 -6 -7 -2 -16 5 -15 -11
-33 -29 -34 -12 0 -4 84 9 98 7 7 12 21 12 30 -1 15 -2 15 -6 -1 -2 -9 -9 -17
-15 -17 -5 0 -8 6 -5 14 16 41 28 101 31 158 3 34 8 73 11 86 4 13 3 22 -3 22
-13 0 -23 -61 -24 -135 0 -30 -4 -55 -7 -55 -4 0 -7 -8 -8 -17 -1 -10 -7 -46
-14 -80 l-12 -63 -32 4 -32 4 3 -56 c2 -41 0 -49 -5 -27 l-8 30 -7 -27 c-5
-16 -12 -28 -17 -28 -9 0 2 34 22 72 7 14 8 18 0 14 -5 -4 -17 7 -26 23 -11
22 -20 28 -32 24 -13 -5 -15 -2 -11 15 4 12 2 20 -3 16 -5 -3 -9 -36 -9 -74
l0 -68 -39 21 c-35 19 -37 23 -31 51 4 17 11 38 14 46 4 9 0 24 -9 35 -14 19
-14 18 -9 -11 3 -18 1 -34 -5 -38 -5 -4 -7 -14 -4 -23 5 -12 3 -14 -7 -8 -10
6 -12 4 -7 -9 5 -14 3 -16 -13 -12 -11 3 -29 9 -40 12 -15 4 -20 14 -20 40 0
19 -5 34 -10 34 -6 0 -10 -6 -9 -12 4 -35 -2 -45 -23 -42 -70 11 -109 24 -158
52 -30 18 -82 45 -115 60 -33 16 -66 36 -74 45 -7 10 -20 17 -27 17 -12 0 -14
-71 -14 -425 l0 -425 3460 0 3460 0 0 3460 0 3460 -3460 0 -3460 0 0 -2451z
m5637 1183 c10 -7 31 -16 46 -19 34 -7 17 -23 -24 -23 -40 0 -72 31 -71 68 1
49 15 62 23 22 4 -19 16 -40 26 -48z m-2757 -3306 c0 -3 -4 -8 -10 -11 -5 -3
-10 -1 -10 4 0 6 5 11 10 11 6 0 10 -2 10 -4z m-1671 -300 c-20 -19 -53 -41
-73 -50 -35 -14 -36 -14 -26 4 6 10 17 16 27 14 11 -3 35 10 58 30 51 45 61
46 14 2z m-202 -78 c-3 -7 -5 -2 -5 12 0 14 2 19 5 13 2 -7 2 -19 0 -25z
m1022 6 c2 -2 -12 -4 -31 -4 -28 0 -37 -5 -41 -21 -6 -22 15 -54 27 -42 3 4 6
2 6 -4 0 -6 11 -13 25 -15 13 -3 22 -2 20 2 -3 5 2 11 11 14 8 3 12 2 9 -4 -3
-5 2 -13 12 -18 21 -11 56 -7 61 7 2 5 10 7 18 4 7 -3 11 -10 7 -16 -3 -5 -1
-7 5 -3 5 3 12 3 15 -1 2 -5 2 -3 1 4 -2 7 2 15 8 19 6 4 8 3 5 -2 -3 -6 -2
-16 4 -24 7 -13 9 -13 9 1 0 12 10 15 44 14 33 -2 43 1 39 12 -3 7 0 13 6 13
6 0 11 -7 11 -15 0 -19 5 -19 35 1 23 15 25 15 25 -1 0 -14 3 -15 14 -6 11 10
20 10 36 1 15 -8 25 -9 32 -2 6 6 17 8 26 5 10 -4 13 -2 8 5 -8 14 -7 14 51
17 33 2 43 -2 51 -19 10 -19 11 -19 12 9 2 18 4 23 7 13 3 -12 14 -18 34 -18
18 0 28 4 24 10 -3 6 1 10 9 10 9 0 16 -4 16 -10 0 -5 6 -10 13 -10 7 0 23 -9
35 -20 28 -26 30 -25 34 10 2 23 6 27 17 20 12 -7 12 -12 3 -23 -10 -12 -9
-15 6 -19 15 -4 18 0 15 21 l-3 26 11 -27 c13 -34 31 -37 26 -5 -2 12 -2 17 0
10 2 -7 12 -9 20 -6 13 5 15 2 10 -11 -4 -9 -3 -15 2 -11 6 3 14 -3 20 -12 9
-16 10 -16 8 4 0 12 -5 19 -11 16 -5 -3 -6 -1 -2 6 4 6 11 9 16 6 5 -3 19 -1
30 5 16 8 20 8 18 -2 -2 -7 3 -12 10 -11 6 2 12 -5 13 -15 0 -10 3 -12 6 -4 2
6 9 10 14 6 5 -3 9 0 9 5 0 22 30 10 31 -11 0 -17 2 -19 7 -8 4 8 14 17 22 19
45 10 70 11 70 2 0 -6 -6 -8 -14 -5 -14 5 -33 -13 -23 -22 6 -7 49 15 60 30 4
6 5 -2 2 -19 -3 -16 -2 -24 1 -17 3 6 12 12 20 12 8 0 14 -6 14 -12 1 -7 7 -2
16 12 13 22 14 22 9 3 -6 -22 7 -26 33 -9 7 4 16 5 19 2 4 -3 14 1 24 10 16
15 17 14 15 -10 -3 -21 -1 -24 10 -15 11 9 14 9 14 0 0 -7 10 -10 26 -7 20 4
24 2 20 -10 -5 -12 -2 -12 15 -3 11 6 27 8 36 5 8 -3 24 -1 35 5 17 9 24 8 34
-6 8 -10 11 -23 7 -29 -3 -6 -3 -8 2 -4 4 4 14 3 22 -4 11 -9 13 -8 11 1 -2 7
8 20 22 29 24 16 25 16 10 -2 -14 -18 -14 -19 7 -8 13 7 24 8 28 3 3 -6 14 -8
25 -6 11 2 20 0 20 -6 0 -5 17 -7 37 -5 20 3 44 1 54 -5 11 -5 20 -5 23 0 9
13 30 8 50 -12 23 -23 29 -21 15 5 l-11 21 28 -20 c20 -13 44 -19 77 -17 26 0
47 -3 47 -8 0 -5 4 -7 9 -4 12 8 63 -12 73 -27 6 -9 8 -9 8 1 0 9 10 12 28 11
15 -2 33 0 39 4 9 6 11 3 6 -9 -5 -13 -3 -16 10 -11 10 4 17 1 17 -6 0 -8 4
-6 10 3 8 12 10 12 10 -5 0 -16 2 -17 10 -5 8 13 10 13 15 -1 6 -16 70 -20 93
-5 9 6 12 1 9 -16 -2 -12 -2 -17 0 -9 4 12 6 12 13 0 5 -7 13 -10 17 -5 4 5 2
11 -4 13 -15 5 -17 23 -4 23 5 0 13 -10 16 -21 6 -17 9 -19 16 -8 7 11 9 11 9
-2 0 -9 7 -19 15 -23 8 -3 15 -1 15 5 0 6 4 7 10 4 6 -3 10 2 11 12 0 16 1 16
9 -2 5 -11 9 -15 9 -8 1 15 39 8 61 -12 9 -8 19 -12 23 -9 3 4 14 3 24 -1 10
-5 26 -9 36 -10 31 -4 32 -5 18 -14 -7 -5 -10 -14 -7 -20 5 -8 11 -7 20 2 8 6
12 15 10 19 -2 3 -1 14 2 23 6 15 9 14 20 -6 7 -13 13 -20 14 -16 0 5 6 5 13
0 12 -8 32 -13 54 -15 9 -1 10 -5 2 -14 -6 -7 -6 -14 -1 -18 10 -6 27 22 23
37 -1 5 3 6 9 2 6 -3 8 -10 6 -14 -3 -4 8 -21 25 -37 17 -16 28 -22 24 -13 -5
12 1 15 27 14 17 -1 34 -7 36 -14 3 -9 7 -10 11 -2 5 7 19 4 44 -9 20 -11 37
-16 37 -11 0 5 9 11 19 14 14 3 18 1 14 -9 -3 -8 0 -14 6 -14 6 0 11 7 11 15
0 18 16 20 24 3 5 -10 7 -10 12 0 3 6 10 9 15 6 6 -3 5 -11 -2 -20 -8 -9 -8
-14 -1 -14 6 0 16 8 22 18 10 15 10 14 5 -5 -5 -18 -1 -23 17 -27 37 -9 78 -2
78 12 0 8 7 6 21 -7 14 -13 30 -18 51 -14 19 3 28 1 24 -6 -4 -5 2 -15 13 -20
27 -15 34 -14 27 4 -3 8 -1 15 4 15 6 0 10 -11 10 -25 0 -28 20 -35 21 -7 0
13 2 14 6 2 3 -8 10 -17 14 -20 5 -3 10 -17 12 -30 2 -13 9 -26 15 -28 6 -2 8
-10 5 -19 -4 -10 -2 -14 4 -10 6 4 14 0 17 -9 10 -27 7 -36 -11 -29 -14 5 -15
3 -6 -6 9 -9 7 -16 -10 -30 -20 -16 -21 -18 -4 -24 9 -4 26 -5 37 -2 11 3 18
1 15 -3 -3 -5 -1 -11 5 -15 5 -3 10 -11 10 -16 0 -6 -4 -8 -9 -4 -5 3 -13 0
-17 -6 -4 -7 -3 -10 2 -6 5 3 18 -1 29 -9 10 -8 13 -14 7 -14 -7 0 -12 -9 -12
-20 0 -11 -5 -20 -10 -20 -6 0 -10 6 -9 13 3 28 -2 33 -38 29 -34 -4 -35 -6
-18 -18 10 -8 15 -14 9 -14 -5 0 -19 -3 -31 -6 -17 -5 -23 -2 -23 10 0 9 -7
16 -16 16 -10 0 -13 -6 -10 -18 4 -11 -2 -23 -14 -32 -11 -8 -20 -21 -20 -30
-1 -13 -2 -13 -10 1 -10 17 -90 99 -96 99 -10 0 -2 -18 19 -40 13 -14 21 -32
19 -39 -3 -8 0 -11 6 -7 5 3 13 -1 16 -10 9 -23 7 -44 -4 -44 -5 0 -7 6 -4 14
3 8 0 17 -7 22 -7 4 -10 3 -6 -3 4 -6 1 -13 -6 -16 -10 -4 -13 2 -10 21 l5 27
-16 -29 c-9 -15 -13 -33 -9 -39 3 -6 1 -7 -6 -3 -6 4 -9 16 -6 26 3 10 1 21
-4 25 -7 3 -8 0 -5 -9 4 -11 0 -16 -14 -16 -12 0 -22 -9 -25 -22 -5 -19 -8
-20 -23 -8 -14 12 -18 12 -28 -2 -11 -15 -12 -13 -13 15 0 18 -2 70 -5 117 -3
47 -1 90 4 97 5 7 5 14 -1 17 -6 4 -17 -4 -25 -16 -17 -27 -27 -96 -15 -104 5
-3 7 -22 5 -42 -2 -20 2 -43 8 -51 8 -11 8 -13 -1 -7 -7 4 -13 2 -13 -3 0 -6
-5 -10 -11 -9 -6 2 -14 -4 -16 -12 -3 -9 -1 -11 4 -5 17 21 33 15 33 -12 0
-21 -3 -24 -12 -15 -16 16 -33 15 -20 -1 7 -7 7 -18 2 -27 -6 -10 -10 -3 -15
24 -4 20 -5 40 -2 43 4 3 2 14 -4 24 -5 11 -10 40 -10 67 -1 55 -7 82 -19 82
-5 0 -10 -10 -12 -22 -2 -12 -14 -28 -28 -35 -14 -7 -21 -13 -16 -13 5 0 4 -6
-2 -13 -8 -9 -7 -21 3 -41 14 -27 12 -51 -3 -42 -14 8 -6 -42 9 -60 13 -16 12
-16 -10 -4 -21 11 -23 10 -18 -4 4 -11 2 -16 -6 -15 -6 1 -30 -2 -52 -6 -22
-5 -43 -9 -47 -10 -3 0 -10 -4 -15 -9 -5 -5 -2 -6 6 -1 9 5 12 4 8 -3 -14 -21
-45 0 -54 36 -10 43 -28 52 -37 17 -4 -14 -11 -25 -16 -25 -6 0 -10 -5 -10
-11 0 -5 4 -7 10 -4 6 3 10 1 10 -4 0 -15 -12 -14 -38 5 -22 15 -31 54 -12 54
6 0 5 8 -2 20 -10 15 -10 22 0 32 17 17 15 30 -5 26 -33 -6 -73 56 -73 112 0
23 -5 30 -19 30 -16 0 -18 -7 -16 -51 2 -33 10 -59 22 -72 23 -27 43 -71 43
-97 0 -11 4 -20 8 -20 5 0 14 -11 20 -24 8 -19 7 -26 -9 -40 -11 -9 -26 -16
-34 -16 -8 0 -15 -4 -15 -9 0 -10 -57 -8 -67 3 -3 3 0 6 8 6 10 0 11 2 2 8 -7
4 -13 44 -15 105 -1 53 -6 97 -11 97 -4 0 -26 11 -48 26 -22 14 -50 24 -62 22
-20 -3 -22 1 -20 45 3 44 1 47 -22 47 -22 0 -25 -4 -25 -35 0 -22 -6 -38 -15
-41 -11 -5 -13 -16 -8 -51 6 -44 6 -45 -15 -32 -19 12 -24 11 -38 -3 -24 -23
-8 -41 29 -32 l30 6 -6 -78 c-4 -42 -9 -79 -12 -82 -2 -3 -11 1 -19 7 -21 17
-43 -23 -25 -45 21 -26 -10 -16 -33 11 -28 32 -42 32 -34 -1 4 -14 2 -32 -4
-40 -7 -7 -8 -19 -4 -25 4 -7 3 -9 -4 -5 -17 11 1 164 21 178 7 4 7 11 -1 21
-7 8 -10 22 -6 31 4 10 1 16 -9 16 -17 0 -35 -79 -23 -99 4 -5 2 -12 -3 -16
-6 -3 -8 -12 -5 -19 3 -8 1 -17 -5 -20 -7 -4 -10 10 -9 39 1 53 -19 85 -29 47
-5 -22 -6 -22 -26 -5 -19 17 -20 17 -15 -2 5 -21 -7 -38 -30 -42 -15 -4 -26
40 -18 72 5 19 3 23 -9 19 -12 -5 -15 4 -15 50 0 31 -4 56 -10 56 -5 0 -11 -6
-11 -12 -5 -44 -8 -67 -13 -100 -3 -20 -1 -40 4 -43 12 -7 14 -66 3 -64 -19 3
-27 -2 -15 -10 7 -4 17 -26 22 -47 l9 -39 -25 28 c-31 36 -31 27 2 -24 14 -22
23 -46 20 -52 -2 -7 -5 -4 -5 6 -1 9 -5 17 -9 17 -13 0 -42 69 -49 116 -3 24
-10 44 -14 44 -5 0 -9 -6 -9 -12 0 -9 -3 -8 -9 2 -6 8 -8 17 -5 21 7 12 -18
59 -33 59 -17 0 -17 -27 0 -33 6 -2 0 -8 -15 -12 -37 -10 -35 -22 6 -39 30
-12 80 -76 60 -76 -4 0 0 -8 8 -17 9 -10 23 -34 31 -53 14 -35 14 -36 -11 -38
-29 -2 -52 14 -52 37 0 25 -24 71 -35 68 -5 -2 -31 24 -58 57 -26 34 -56 65
-65 70 -9 5 1 -11 24 -35 68 -74 97 -132 53 -108 -12 6 -29 9 -40 6 -10 -3
-20 -2 -22 2 -2 3 -3 1 -1 -6 1 -6 0 -14 -4 -18 -4 -3 -7 -14 -7 -22 0 -9 -5
-18 -12 -20 -8 -3 -9 6 -3 32 7 31 6 36 -8 33 -12 -3 -17 -14 -16 -39 l1 -35
-103 0 -103 1 -6 35 c-9 54 -15 70 -27 70 -10 0 -5 -51 9 -86 8 -22 -23 -17
-39 7 -12 19 -18 21 -44 11 -23 -8 -25 -11 -9 -12 11 -1 25 -2 31 -1 14 1 14
-32 0 -41 -20 -14 -56 -9 -56 7 0 8 -5 15 -11 15 -6 0 -9 -7 -5 -15 3 -9 0
-15 -9 -15 -10 0 -15 10 -15 30 0 39 -16 39 -23 0 -4 -17 -13 -30 -21 -30 -12
0 -14 14 -13 63 1 34 -2 77 -7 95 -7 28 -6 32 10 32 14 0 16 2 6 9 -8 4 -13
11 -13 15 3 22 0 36 -9 36 -5 0 -10 -11 -10 -24 0 -35 -10 -56 -26 -56 -8 0
-13 9 -11 21 1 12 -4 24 -12 27 -10 3 -12 0 -8 -13 4 -9 0 -32 -9 -50 -9 -19
-13 -38 -11 -42 3 -5 1 -15 -4 -23 -8 -13 -10 -13 -18 0 -6 8 -13 11 -18 7 -4
-4 -2 -17 5 -27 15 -24 16 -74 2 -65 -6 4 -8 10 -5 15 3 5 1 11 -5 15 -5 3
-10 19 -10 36 0 16 -4 29 -10 29 -5 0 -12 17 -16 38 -10 57 -21 72 -29 40 -5
-19 -1 -37 14 -61 21 -35 31 -78 11 -47 -8 13 -11 11 -16 -7 -11 -40 -26 -25
-21 19 5 45 0 68 -15 68 -5 0 -9 -24 -9 -52 1 -83 0 -89 -11 -82 -6 4 -8 -1
-4 -12 3 -11 1 -26 -5 -34 -8 -11 -9 -4 -4 25 10 73 6 123 -12 129 -17 7 -28
-13 -14 -27 17 -17 13 -26 -9 -20 -11 3 -23 17 -27 31 -6 24 -7 25 -14 7 -5
-13 -8 -15 -8 -5 -1 13 -2 13 -11 0 -5 -8 -7 -28 -4 -45 7 -39 10 -95 5 -89
-2 2 -9 -4 -16 -12 -10 -14 -15 -14 -34 -4 l-23 12 33 24 c20 15 27 24 17 24
-8 0 -20 -6 -26 -13 -6 -7 -38 -26 -72 -42 -33 -16 -60 -33 -60 -38 0 -6 5 -6
13 0 6 6 21 13 32 17 18 6 18 5 5 -8 -33 -32 -54 -24 -83 34 -18 37 -41 64
-70 83 -23 15 -50 37 -61 50 -10 12 -21 22 -25 22 -4 0 -20 12 -36 28 -36 33
-40 33 -42 6 -1 -13 5 -23 18 -26 10 -3 19 -9 19 -13 0 -5 14 -13 30 -19 20
-6 30 -17 30 -30 0 -11 9 -25 20 -31 15 -8 17 -15 11 -28 -23 -46 -41 -95 -41
-112 0 -11 -5 -20 -10 -20 -6 0 -8 12 -5 28 3 15 2 21 -1 15 -10 -22 -24 -14
-24 12 0 31 -20 33 -21 3 0 -14 -3 -18 -6 -9 -4 10 -10 5 -19 -15 -12 -29 -13
-28 -12 19 1 26 5 50 10 53 4 3 5 17 2 31 -7 25 -10 48 -13 86 0 9 -4 17 -8
17 -5 0 -8 -32 -8 -70 0 -38 -3 -70 -7 -70 -5 0 -8 -6 -8 -14 0 -8 -9 -21 -20
-29 -11 -8 -17 -16 -14 -19 3 -3 0 -9 -6 -13 -6 -3 -10 -3 -9 2 1 4 1 19 0 32
-1 24 -1 24 -16 5 -14 -19 -14 -19 -15 1 0 16 -2 17 -10 5 -8 -13 -11 -12 -25
5 -16 19 -16 19 -10 1 3 -11 0 -23 -7 -28 -10 -6 -10 -8 -1 -8 7 0 10 -7 6
-15 -5 -14 -8 -14 -26 2 -11 10 -17 12 -12 4 9 -16 -10 -31 -41 -31 -16 0 -24
8 -29 33 -5 17 -8 40 -7 50 1 11 -3 17 -10 14 -15 -5 -14 -17 1 -65 8 -27 7
-33 -3 -29 -8 3 -23 -1 -35 -10 -21 -14 -22 -14 -15 11 4 16 2 26 -5 26 -6 0
-11 -6 -12 -12 -1 -7 -5 -2 -9 12 l-8 25 -1 -25 c-1 -20 -3 -22 -11 -10 -7 11
-10 12 -10 2 0 -7 -6 -20 -14 -28 -13 -12 -15 -11 -21 6 -3 11 -4 28 0 39 3
10 1 29 -5 42 l-10 24 1 -25 c2 -49 -1 -61 -13 -54 -8 5 -9 2 -5 -10 5 -14 3
-17 -8 -12 -11 4 -15 -2 -16 -22 l-1 -27 -8 25 c-4 14 -8 20 -9 13 -1 -6 -9
-10 -18 -8 -10 1 -17 8 -16 14 4 17 -13 13 -28 -6 -12 -15 -12 -16 4 -10 12 5
17 3 15 -5 -8 -22 -24 -19 -36 7 -13 29 -42 24 -42 -7 0 -19 -2 -19 -20 5 -26
33 -25 54 6 155 l25 84 45 -5 c24 -2 44 -1 44 4 0 12 -46 22 -71 16 -18 -5
-20 -2 -14 26 4 18 13 39 20 47 18 20 39 106 69 279 19 105 30 147 43 156 15
12 18 32 20 146 2 101 -1 140 -12 162 -9 17 -11 35 -6 41 4 6 7 56 5 111 -2
55 -1 112 2 128 6 30 24 27 24 -4 0 -12 5 -19 13 -16 6 2 12 15 12 29 -1 24 2
25 40 20 22 -2 42 -6 44 -8z m309 9 c-10 -2 -26 -2 -35 0 -10 3 -2 5 17 5 19
0 27 -2 18 -5z m-141 -9 c-3 -3 -12 -4 -19 -1 -8 3 -5 6 6 6 11 1 17 -2 13 -5z
m-54 -11 c-7 -2 -19 -2 -25 0 -7 3 -2 5 12 5 14 0 19 -2 13 -5z m-46 -9 c-3
-3 -12 -4 -19 -1 -8 3 -5 6 6 6 11 1 17 -2 13 -5z m338 -44 c3 -5 1 -10 -4
-10 -6 0 -11 5 -11 10 0 6 2 10 4 10 3 0 8 -4 11 -10z m309 -11 c-3 -5 -10 -7
-15 -3 -5 3 -7 10 -3 15 3 5 10 7 15 3 5 -3 7 -10 3 -15z m789 -79 c3 -11 2
-22 -2 -24 -4 -3 -8 6 -9 20 -2 29 4 31 11 4z m1380 -254 c-4 -6 1 -5 10 3 15
12 17 11 17 -3 0 -9 -8 -16 -20 -16 -11 0 -20 6 -20 13 0 8 -4 7 -10 -3 -5 -8
-10 -10 -10 -4 0 14 7 21 25 21 8 0 11 -5 8 -11z m217 -66 c0 -5 -4 -10 -10
-10 -5 0 -10 5 -10 10 0 6 5 10 10 10 6 0 10 -4 10 -10z m300 -81 c0 -6 8 -9
18 -7 15 4 19 -1 20 -28 1 -35 -20 -48 -31 -19 -7 16 9 30 16 15 3 -6 4 -5 3
2 -2 7 -10 12 -18 10 -9 -1 -18 7 -21 18 -3 11 -1 20 4 20 5 0 9 -5 9 -11z
m105 -27 c-3 -3 -11 0 -18 7 -9 10 -8 11 6 5 10 -3 15 -9 12 -12z m-23 -47 c2
-19 0 -35 -4 -35 -4 0 -8 16 -8 35 0 19 2 35 4 35 2 0 6 -16 8 -35z m82 -40
c-5 -11 -1 -14 12 -9 16 5 16 4 4 -5 -17 -12 -36 1 -26 18 10 16 16 13 10 -4z
m-43 -18 c-10 -9 -11 -8 -5 6 3 10 9 15 12 12 3 -3 0 -11 -7 -18z m129 19 c0
-3 -4 -8 -10 -11 -5 -3 -10 -1 -10 4 0 6 5 11 10 11 6 0 10 -2 10 -4z m-54
-71 c-1 -8 -5 -17 -8 -21 -5 -4 -4 16 1 34 3 9 9 -1 7 -13z m-1311 -15 c3 -5
1 -10 -4 -10 -6 0 -11 5 -11 10 0 6 2 10 4 10 3 0 8 -4 11 -10z m-16 -108 c-1
-9 2 -28 5 -42 4 -14 4 -19 0 -12 -3 6 -9 10 -12 8 -4 -2 -8 14 -9 35 -2 22 1
37 7 34 5 -3 9 -13 9 -23z m99 -9 c2 -9 -8 -13 -32 -13 -38 0 -57 16 -29 23
29 8 56 3 61 -10z m26 -38 c20 -15 31 -45 17 -45 -4 0 -8 -15 -9 -32 -4 -53
-47 -175 -55 -155 -3 9 -2 17 4 17 6 0 2 12 -9 28 -20 28 -31 74 -36 155 l-3
47 36 0 c20 0 45 -7 55 -15z m-114 -35 c0 8 2 11 5 8 9 -9 -7 -38 -17 -32 -6
4 -5 -3 1 -15 7 -12 10 -57 9 -106 -2 -78 -3 -83 -16 -60 -14 27 -27 189 -16
206 4 6 11 6 20 -2 11 -9 14 -9 14 1z m150 -72 c-1 -34 -3 -39 -11 -26 -8 15
-3 68 7 68 2 0 4 -19 4 -42z m-2884 -15 c-3 -21 -5 -40 -6 -43 0 -3 -4 1 -9 9
-5 7 -4 25 2 42 15 39 20 36 13 -8z m2484 -28 c0 -14 -2 -25 -4 -25 -2 0 -6
11 -8 25 -3 14 -1 25 3 25 5 0 9 -11 9 -25z m-92 -64 c3 -36 0 -61 -7 -65 -7
-5 -11 6 -11 31 0 21 -3 56 -6 78 -5 33 -4 38 7 28 7 -7 15 -39 17 -72z m64
45 c-3 -6 -5 -26 -3 -45 3 -51 -9 -32 -13 20 -4 48 2 68 15 48 4 -7 5 -18 1
-23z m407 -14 c-2 -32 -7 -49 -15 -49 -7 0 -10 5 -6 11 7 12 8 18 10 59 1 15
4 27 7 27 4 0 5 -22 4 -48z m-102 -34 c-2 -13 -4 -5 -4 17 -1 22 1 32 4 23 2
-10 2 -28 0 -40z m-2777 7 c-8 -20 -14 -25 -21 -18 -8 8 -6 17 8 30 23 25 26
22 13 -12z m1586 19 c14 -11 16 -17 6 -21 -10 -4 -10 -8 -1 -19 6 -7 9 -19 6
-26 -4 -8 -6 -7 -6 5 -1 9 -5 17 -10 17 -5 0 -8 -16 -6 -35 4 -37 -12 -46 -44
-26 -11 7 -10 14 8 39 11 17 17 32 11 34 -10 3 -2 48 9 48 4 0 16 -7 27 -16z
m1030 -71 c-10 -10 -19 5 -10 18 6 11 8 11 12 0 2 -7 1 -15 -2 -18z m54 23 c0
-2 -7 -6 -15 -10 -8 -3 -15 -1 -15 4 0 6 7 10 15 10 8 0 15 -2 15 -4z m-2693
-63 c-11 -52 -27 -72 -27 -33 0 18 31 93 36 87 1 -1 -3 -26 -9 -54z m2179 35
c-3 -13 -6 -29 -6 -37 0 -11 -3 -11 -15 -1 -24 20 -19 60 6 60 17 0 20 -4 15
-22z m64 -8 c6 -11 7 -20 3 -20 -4 0 -1 -5 7 -10 11 -8 9 -9 -13 -8 -27 2 -44
28 -32 48 10 16 23 12 35 -10z m587 -2 c-3 -8 -6 -5 -6 6 -1 11 2 17 5 13 3
-3 4 -12 1 -19z m-330 -23 c-15 -16 -32 -8 -18 9 6 7 7 17 3 22 -4 4 1 2 10
-5 14 -10 15 -16 5 -26z m160 9 c-3 -3 -12 -4 -19 -1 -8 3 -5 6 6 6 11 1 17
-2 13 -5z m-3217 -8 c0 -2 -7 -7 -16 -10 -8 -3 -12 -2 -9 4 6 10 25 14 25 6z
m112 -35 c-1 -18 -8 -39 -15 -46 -15 -15 -61 -31 -55 -19 3 5 15 31 27 57 24
54 47 58 43 8z m2065 17 c-3 -8 -6 -5 -6 6 -1 11 2 17 5 13 3 -3 4 -12 1 -19z
m-269 -13 c0 -14 -4 -25 -9 -25 -5 0 -9 11 -9 25 0 14 4 25 9 25 5 0 9 -11 9
-25z m117 14 c8 -12 -23 -38 -46 -39 -12 0 -15 7 -11 25 3 18 11 25 28 25 12
0 26 -5 29 -11z m-1972 -14 c-3 -9 -8 -14 -10 -11 -3 3 -2 9 2 15 9 16 15 13
8 -4z m-143 -10 c-7 -9 -15 -13 -17 -11 -7 7 7 26 19 26 6 0 6 -6 -2 -15z
m100 11 c0 -2 -9 -6 -20 -9 -11 -3 -18 -1 -14 4 5 9 34 13 34 5z m1569 -10 c8
-10 7 -22 -4 -50 -17 -41 -25 -44 -49 -17 -17 19 -17 20 3 38 12 9 21 23 21
30 0 17 15 17 29 -1z m-1608 -33 c13 -17 13 -17 -6 -3 -11 8 -22 16 -24 17 -2
2 0 3 6 3 6 0 17 -8 24 -17z m55 -26 c-3 -13 -14 -23 -26 -24 -21 -2 -27 11
-9 22 6 4 8 13 5 20 -3 8 3 15 12 17 21 4 26 -6 18 -35z m-362 4 c18 -20 15
-61 -5 -61 -5 0 -9 -7 -9 -16 0 -8 -4 -12 -10 -9 -12 7 -14 105 -2 105 5 0 17
-9 26 -19z m1956 4 c7 -9 8 -15 2 -15 -5 0 -12 7 -16 15 -3 8 -4 15 -2 15 2 0
9 -7 16 -15z m150 5 c0 -5 -2 -10 -4 -10 -3 0 -8 5 -11 10 -3 6 -1 10 4 10 6
0 11 -4 11 -10z m-1230 -62 c-1 -48 -3 -59 -11 -45 -9 15 -3 107 7 107 2 0 4
-28 4 -62z m820 48 c0 -8 -7 -16 -15 -20 -12 -4 -13 -2 -2 14 14 24 17 25 17
6z m-1590 -32 c0 -8 -7 -14 -15 -14 -10 0 -15 10 -15 26 0 22 2 25 15 14 8 -7
15 -19 15 -26z m190 -13 c0 -9 5 -23 11 -31 9 -12 10 -11 6 8 -3 14 0 22 8 22
9 0 11 -9 6 -32 -4 -18 -12 -33 -19 -32 -7 1 -24 2 -38 3 -19 1 -25 6 -22 19
2 10 11 16 22 14 11 -2 15 1 11 8 -4 6 -13 9 -21 6 -17 -6 -17 -1 -4 24 12 22
40 16 40 -9z m131 15 c-6 -8 -10 -18 -9 -22 4 -13 -23 -74 -33 -74 -12 0 -11
67 1 91 6 10 20 19 32 19 16 0 18 -3 9 -14z m1434 4 c3 -5 1 -10 -4 -10 -6 0
-11 5 -11 10 0 6 2 10 4 10 3 0 8 -4 11 -10z m-1495 -28 c0 -5 -7 -17 -15 -28
-14 -18 -14 -17 -4 9 12 27 19 34 19 19z m760 -7 c0 -8 -4 -15 -10 -15 -5 0
-7 7 -4 15 4 8 8 15 10 15 2 0 4 -7 4 -15z m-67 -15 c3 -11 1 -18 -4 -14 -5 3
-9 12 -9 20 0 20 7 17 13 -6z m-893 -4 c0 -8 6 -16 13 -19 6 -2 -4 -4 -22 -5
-47 -1 -59 8 -30 24 31 17 39 17 39 0z m1040 -26 c0 -5 -2 -10 -4 -10 -3 0 -8
5 -11 10 -3 6 -1 10 4 10 6 0 11 -4 11 -10z m-850 -10 c0 -5 -5 -10 -11 -10
-5 0 -7 5 -4 10 3 6 8 10 11 10 2 0 4 -4 4 -10z"/>
<path d="M1939 1893 c-13 -16 -12 -17 4 -4 16 13 21 21 13 21 -2 0 -10 -8 -17
-17z"/>
<path d="M2520 1889 c0 -5 5 -7 10 -4 6 3 10 8 10 11 0 2 -4 4 -10 4 -5 0 -10
-5 -10 -11z"/>
<path d="M3250 1830 c0 -5 5 -10 11 -10 5 0 7 5 4 10 -3 6 -8 10 -11 10 -2 0
-4 -4 -4 -10z"/>
<path d="M3580 1785 c-9 -10 -9 -15 -1 -15 6 0 11 6 11 13 0 8 4 7 10 -3 6 -9
10 -10 10 -3 0 19 -17 24 -30 8z"/>
<path d="M3841 1737 c-13 -21 -12 -21 5 -5 10 10 16 20 13 22 -3 3 -11 -5 -18
-17z"/>
<path d="M4095 1709 c-4 -6 -4 -13 -1 -16 3 -4 6 -1 6 6 0 7 5 9 12 5 7 -4 8
-3 4 4 -9 15 -13 15 -21 1z"/>
<path d="M4630 1625 c0 -5 5 -17 10 -25 5 -8 10 -10 10 -5 0 6 -5 17 -10 25
-5 8 -10 11 -10 5z"/>
<path d="M4530 1609 c0 -5 5 -7 10 -4 6 3 10 8 10 11 0 2 -4 4 -10 4 -5 0 -10
-5 -10 -11z"/>
<path d="M4692 1595 c4 -4 3 -14 -3 -21 -7 -9 -6 -14 3 -20 7 -4 10 -4 6 1 -4
4 -3 14 3 21 7 9 6 14 -3 20 -7 4 -10 4 -6 -1z"/>
<path d="M4342 1425 c-14 -29 -16 -55 -4 -55 14 1 42 27 35 33 -3 4 3 7 15 7
25 0 28 10 10 28 -20 20 -44 14 -56 -13z"/>
<path d="M4427 1404 c-9 -10 12 -34 30 -34 19 0 12 34 -8 38 -8 1 -18 0 -22
-4z"/>
<path d="M4187 1244 c-11 -11 -8 -52 4 -59 14 -9 16 -5 21 29 3 28 -11 44 -25
30z"/>
<path d="M4441 1144 c0 -11 3 -14 6 -6 3 7 2 16 -1 19 -3 4 -6 -2 -5 -13z"/>
<path d="M3837 1124 c-14 -14 -6 -23 18 -20 14 2 26 7 28 12 3 11 -36 18 -46
8z"/>
<path d="M4520 1066 c0 -9 5 -16 10 -16 6 0 10 4 10 9 0 6 -4 13 -10 16 -5 3
-10 -1 -10 -9z"/>
<path d="M4051 1020 c-23 -13 -8 -26 24 -20 28 6 29 6 9 17 -11 7 -26 8 -33 3z"/>
<path d="M3466 1004 c-9 -8 -16 -23 -16 -31 0 -13 5 -12 25 7 14 13 25 27 25
32 0 13 -17 9 -34 -8z"/>
<path d="M2130 995 c-20 -24 -6 -28 15 -5 10 11 13 20 8 20 -6 0 -16 -7 -23
-15z"/>
<path d="M2036 798 c-3 -7 -11 -35 -20 -62 -19 -58 -20 -68 -4 -42 12 22 38
116 32 116 -3 0 -6 -6 -8 -12z"/>
<path d="M3865 760 c-3 -5 -1 -10 4 -10 6 0 11 5 11 10 0 6 -2 10 -4 10 -3 0
-8 -4 -11 -10z"/>
<path d="M1940 634 c0 -8 5 -12 10 -9 6 3 10 10 10 16 0 5 -4 9 -10 9 -5 0
-10 -7 -10 -16z"/>
<path d="M27 2043 c-10 -10 -8 -23 4 -23 5 0 8 4 5 9 -4 5 0 12 6 14 7 3 8 6
2 6 -6 1 -14 -2 -17 -6z"/>
<path d="M281 2024 c0 -11 3 -14 6 -6 3 7 2 16 -1 19 -3 4 -6 -2 -5 -13z"/>
<path d="M50 2026 c0 -2 7 -6 15 -10 8 -3 15 -1 15 4 0 6 -7 10 -15 10 -8 0
-15 -2 -15 -4z"/>
<path d="M195 2020 c-3 -5 -1 -10 4 -10 6 0 11 5 11 10 0 6 -2 10 -4 10 -3 0
-8 -4 -11 -10z"/>
<path d="M750 2022 c0 -5 7 -9 15 -9 8 0 12 4 9 9 -3 4 -9 8 -15 8 -5 0 -9 -4
-9 -8z"/>
<path d="M711 2004 c0 -11 3 -14 6 -6 3 7 2 16 -1 19 -3 4 -6 -2 -5 -13z"/>
<path d="M885 1937 c-20 -19 -20 -19 13 -3 35 18 39 23 20 23 -7 0 -22 -9 -33
-20z"/>
<path d="M659 1183 c-6 -16 -15 -49 -20 -76 -5 -26 -12 -55 -17 -65 -5 -9 -9
-39 -10 -66 -1 -27 -7 -53 -14 -57 -9 -6 -9 -19 -1 -53 6 -26 6 -49 2 -52 -13
-8 -31 -44 -22 -44 5 0 16 13 25 28 15 26 18 48 18 131 0 14 7 32 15 41 8 9
14 34 14 60 -1 25 1 56 4 70 3 14 8 35 11 48 3 13 8 32 11 43 10 30 -4 22 -16
-8z m-22 -185 c-3 -8 -6 -5 -6 6 -1 11 2 17 5 13 3 -3 4 -12 1 -19z"/>
<path d="M710 961 c0 -17 -3 -31 -7 -31 -5 0 -8 -14 -9 -30 -1 -17 3 -30 8
-30 5 0 6 -5 3 -10 -4 -6 -11 -7 -17 -4 -8 5 -9 1 -3 -12 4 -10 10 -30 12 -44
5 -24 5 -25 -11 -5 -8 11 -16 15 -16 8 0 -6 5 -15 10 -18 6 -3 10 -14 10 -23
0 -12 -3 -13 -12 -4 -18 18 -38 14 -38 -8 0 -11 4 -20 10 -20 5 0 14 -15 19
-32 9 -33 9 -33 10 -5 1 15 8 41 16 57 8 16 17 55 19 87 3 32 8 77 11 99 4 26
2 44 -4 49 -7 4 -11 -5 -11 -24z m-39 -218 c13 -16 12 -17 -3 -4 -10 7 -18 15
-18 17 0 8 8 3 21 -13z"/>
<path d="M643 933 c-3 -10 -8 -22 -10 -28 -3 -5 3 -1 11 9 16 20 21 36 11 36
-3 0 -8 -8 -12 -17z"/>
<path d="M757 882 c3 -12 9 -25 14 -28 14 -8 11 10 -6 32 -13 18 -14 18 -8 -4z"/>
</g>
</svg>
